<svg xmlns="http://www.w3.org/2000/svg" viewBox="0 0 100 100">
    <circle cx="50" cy="50" r="48" fill="#c1121f" stroke="#050505" stroke-width="4"/>
    <circle cx="50" cy="50" r="28" fill="none" stroke="#050505" stroke-width="2"/>
    <circle cx="50" cy="50" r="12" fill="#050505"/>
    <g transform="translate(50, 50)">
        <g transform="rotate(0) translate(0, -28)">
            <circle cx="0" cy="0" r="8" fill="#050505"/>
            <path d="M -8 0 C -12 -12, 0 -18, 10 -22 C 0 -10, 8 0, 8 0 Z" fill="#050505"/>
        </g>
        <g transform="rotate(120) translate(0, -28)">
            <circle cx="0" cy="0" r="8" fill="#050505"/>
            <path d="M -8 0 C -12 -12, 0 -18, 10 -22 C 0 -10, 8 0, 8 0 Z" fill="#050505"/>
        </g>
        <g transform="rotate(240) translate(0, -28)">
            <circle cx="0" cy="0" r="8" fill="#050505"/>
            <path d="M -8 0 C -12 -12, 0 -18, 10 -22 C 0 -10, 8 0, 8 0 Z" fill="#050505"/>
        </g>
    </g>
</svg>
